<svg width="32" height="31" viewBox="0 0 32 31" fill="none" xmlns="http://www.w3.org/2000/svg">
  <style>
    path { fill: black; }
    @media (prefers-color-scheme: dark) {
      path { fill: white; }
    }
  </style>
  <path d="M25.1103 4.9708V3.40582C25.1103 2.57571 24.7797 1.7796 24.191 1.19262C23.6024 0.60564 22.804 0.275879 21.9716 0.275879H18.8328C18.0003 0.275879 17.2019 0.60564 16.6133 1.19262C16.0247 1.7796 15.694 2.57571 15.694 3.40582V4.9708H12.5552V3.40582C12.5552 2.57571 12.2245 1.7796 11.6358 1.19262C11.0472 0.60564 10.2488 0.275879 9.41638 0.275879H6.27759C5.44513 0.275879 4.64676 0.60564 4.05812 1.19262C3.46949 1.7796 3.13879 2.57571 3.13879 3.40582V4.9708H0V26.8804H13.8264C11.9852 24.9588 10.9714 22.3949 11.0018 19.7374C11.0321 17.0798 12.1043 14.5397 13.9889 12.6604C15.8735 10.7811 18.4209 9.71195 21.0859 9.68166C23.751 9.65136 26.3221 10.6624 28.2491 12.4983V4.9708M27.1663 23.594C28.0925 22.1308 28.4461 20.3787 28.1596 18.6721C27.8731 16.9655 26.9666 15.4238 25.6129 14.3412C24.2593 13.2585 22.5533 12.7108 20.8205 12.8023C19.0877 12.8939 17.4493 13.6184 16.218 14.8377C14.9867 16.0569 14.2487 17.6855 14.1447 19.4128C14.0407 21.14 14.578 22.845 15.6542 24.2024C16.7304 25.5598 18.27 26.4746 19.9794 26.7722C21.6888 27.0699 23.4482 26.7296 24.922 25.8162L29.8185 30.6207L32 28.4454M21.1869 23.7505C20.4109 23.7505 19.6523 23.521 19.0071 23.0911C18.3619 22.6612 17.859 22.0502 17.562 21.3353C17.2651 20.6204 17.1874 19.8337 17.3388 19.0748C17.4901 18.3158 17.8638 17.6187 18.4125 17.0715C18.9612 16.5244 19.6603 16.1517 20.4214 16.0008C21.1825 15.8498 21.9714 15.9273 22.6883 16.2234C23.4052 16.5195 24.018 17.021 24.4491 17.6644C24.8802 18.3078 25.1103 19.0642 25.1103 19.838C25.1103 20.8757 24.697 21.8708 23.9612 22.6045C23.2254 23.3383 22.2274 23.7505 21.1869 23.7505Z" />
</svg>
