<svg width="64" height="64" viewBox="0 0 64 64" fill="none" xmlns="http://www.w3.org/2000/svg">
  <circle cx="32" cy="32" r="32" fill="#EBFFFB"/>
  <path d="M43.653 18.9048V16.9031C43.653 15.8414 43.2301 14.8231 42.4772 14.0723C41.7242 13.3215 40.7031 12.8997 39.6383 12.8997H35.6236C34.5588 12.8997 33.5376 13.3215 32.7847 14.0723C32.0318 14.8231 31.6088 15.8414 31.6088 16.9031V18.9048H27.5941V16.9031C27.5941 15.8414 27.1711 14.8231 26.4182 14.0723C25.6653 13.3215 24.6441 12.8997 23.5794 12.8997H19.5646C18.4999 12.8997 17.4787 13.3215 16.7258 14.0723C15.9729 14.8231 15.5499 15.8414 15.5499 16.9031V18.9048H11.5352V46.9288H29.2201C26.8651 44.4709 25.5683 41.1915 25.6072 37.7923C25.646 34.3932 27.0174 31.1441 29.428 28.7404C31.8385 26.3366 35.0967 24.9691 38.5055 24.9304C41.9143 24.8916 45.2029 26.1847 47.6678 28.5331V18.9048M46.2827 42.7252C47.4674 40.8536 47.9197 38.6126 47.5533 36.4298C47.1868 34.2469 46.0273 32.275 44.2959 30.8902C42.5645 29.5054 40.3824 28.8048 38.166 28.9219C35.9496 29.0391 33.8541 29.9658 32.2791 31.5253C30.7042 33.0848 29.7602 35.1679 29.6272 37.3772C29.4942 39.5864 30.1815 41.7672 31.558 43.5034C32.9344 45.2396 34.9038 46.4097 37.0902 46.7904C39.2766 47.1711 41.527 46.7359 43.4122 45.5676L49.6751 51.7129L52.4654 48.9305M38.6346 42.9254C37.6421 42.9254 36.6718 42.6319 35.8465 42.082C35.0213 41.5321 34.378 40.7506 33.9982 39.8361C33.6184 38.9217 33.519 37.9155 33.7126 36.9448C33.9063 35.9741 34.3842 35.0824 35.0861 34.3825C35.7879 33.6827 36.6821 33.2061 37.6556 33.013C38.6291 32.8199 39.6381 32.919 40.5551 33.2977C41.4721 33.6765 42.2559 34.3179 42.8073 35.1409C43.3587 35.9638 43.653 36.9313 43.653 37.9211C43.653 39.2483 43.1243 40.5212 42.1832 41.4596C41.242 42.3981 39.9656 42.9254 38.6346 42.9254Z" fill="#0B3C49"/>
</svg>
